<svg xmlns="http://www.w3.org/2000/svg" width="24" height="21" viewBox="0 0 24 21"><defs><style>.a{fill:rgba(221,16,13,0.65);}</style></defs><g transform="translate(-1616 -7658)"><path class="a" d="M580.067,394.343a6.443,6.443,0,0,0-4.9-4.822,6.882,6.882,0,0,0-1.4-.146,6.47,6.47,0,0,0-5.54,3.105,6.464,6.464,0,0,0-5.539-3.105,6.811,6.811,0,0,0-1.4.146,6.4,6.4,0,0,0-3.159,10.827l9.441,9.378.653.648.653-.648,9.448-9.384A6.424,6.424,0,0,0,580.067,394.343Z" transform="translate(1059.774 7268.625)"/></g></svg>