<svg xmlns="http://www.w3.org/2000/svg" width="24" height="21" viewBox="0 0 24 21"><defs><style>.a{fill:#d0d0d0;}</style></defs><g transform="translate(-1616 -5480)"><path class="a" d="M527.542,390.292a5.909,5.909,0,0,1,1.207.127,5.49,5.49,0,0,1,2.7,9.276L522,409.078l-9.444-9.381a5.489,5.489,0,0,1,2.7-9.278,5.831,5.831,0,0,1,1.2-.127,5.527,5.527,0,0,1,5.5,4.884l.035.276.035-.276a5.526,5.526,0,0,1,5.5-4.884m0-.917a6.468,6.468,0,0,0-5.54,3.1,6.468,6.468,0,0,0-5.539-3.1,6.8,6.8,0,0,0-1.4.146,6.4,6.4,0,0,0-3.159,10.827l9.441,9.378.653.648.653-.648,9.448-9.384a6.405,6.405,0,0,0-3.164-10.822,6.884,6.884,0,0,0-1.4-.146Z" transform="translate(1105.998 5090.625)"/></g></svg>