<svg xmlns="http://www.w3.org/2000/svg" width="23.996" height="23.996" viewBox="0 0 23.996 23.996"><defs><style>.a{fill:#fff;}</style></defs><g transform="translate(-21 -18)"><path d="M6.085,23.911a8.079,8.079,0,0,1-2.718-.5,4.547,4.547,0,0,1-1.683-1.095A4.512,4.512,0,0,1,.589,20.63a8.079,8.079,0,0,1-.5-2.718C.014,16.37,0,15.907,0,12s.016-4.37.085-5.914a8.124,8.124,0,0,1,.5-2.718A4.565,4.565,0,0,1,1.683,1.683,4.518,4.518,0,0,1,3.366.588a8.079,8.079,0,0,1,2.718-.5C7.627.014,8.091,0,12,0s4.37.016,5.914.085a8.124,8.124,0,0,1,2.718.5,4.53,4.53,0,0,1,1.683,1.095,4.533,4.533,0,0,1,1.095,1.683,8.079,8.079,0,0,1,.5,2.718C23.981,7.628,24,8.09,24,12s-.014,4.37-.085,5.914a8.116,8.116,0,0,1-.5,2.718,4.846,4.846,0,0,1-2.778,2.777,8.079,8.079,0,0,1-2.718.5C16.369,23.981,15.906,24,12,24s-4.37-.014-5.913-.085" transform="translate(21 18)"/><path class="a" d="M441.794,448.434a2.971,2.971,0,1,1,2.971,2.972,2.971,2.971,0,0,1-2.971-2.972m-1.606,0a4.577,4.577,0,1,0,4.577-4.577,4.577,4.577,0,0,0-4.577,4.577m8.266-4.759a1.07,1.07,0,1,0,1.07-1.069h0a1.07,1.07,0,0,0-1.07,1.069m-7.29,12.015a4.928,4.928,0,0,1-1.655-.307,2.952,2.952,0,0,1-1.692-1.691,4.923,4.923,0,0,1-.307-1.655c-.043-.94-.052-1.222-.052-3.6s.009-2.662.052-3.6a4.96,4.96,0,0,1,.307-1.655,2.95,2.95,0,0,1,1.692-1.692,4.923,4.923,0,0,1,1.655-.307c.94-.043,1.222-.052,3.6-.052s2.662.009,3.6.052a4.959,4.959,0,0,1,1.655.307,2.95,2.95,0,0,1,1.692,1.692,4.924,4.924,0,0,1,.307,1.655c.043.94.052,1.222.052,3.6s-.009,2.662-.052,3.6a4.946,4.946,0,0,1-.307,1.655,2.952,2.952,0,0,1-1.692,1.691,4.924,4.924,0,0,1-1.655.307c-.94.043-1.222.052-3.6.052s-2.662-.009-3.6-.052m-.074-16.117a6.537,6.537,0,0,0-2.164.414,4.558,4.558,0,0,0-2.607,2.607,6.538,6.538,0,0,0-.414,2.164c-.044.951-.054,1.254-.054,3.675s.01,2.725.054,3.675a6.538,6.538,0,0,0,.414,2.164,4.558,4.558,0,0,0,2.607,2.607,6.542,6.542,0,0,0,2.164.414c.951.043,1.254.054,3.675.054s2.725-.01,3.675-.054a6.538,6.538,0,0,0,2.164-.414,4.558,4.558,0,0,0,2.607-2.607,6.521,6.521,0,0,0,.414-2.164c.043-.951.053-1.254.053-3.675s-.01-2.725-.053-3.675a6.537,6.537,0,0,0-.414-2.164,4.56,4.56,0,0,0-2.607-2.607,6.529,6.529,0,0,0-2.164-.414c-.951-.043-1.254-.054-3.675-.054s-2.725.01-3.676.054" transform="translate(-411.766 -418.437)"/></g></svg>