<svg xmlns="http://www.w3.org/2000/svg" width="28" height="24" viewBox="0 0 28 24"><path d="M25.122,54.063c.018.262.018.525.018.788,0,8.006-5.774,17.231-16.327,17.231A15.605,15.605,0,0,1,0,69.363a11.252,11.252,0,0,0,1.386.075A11.116,11.116,0,0,0,8.51,66.851a5.8,5.8,0,0,1-5.366-4.2,6.865,6.865,0,0,0,1.084.094,5.769,5.769,0,0,0,1.51-.206,5.985,5.985,0,0,1-4.6-5.944V56.52a5.553,5.553,0,0,0,2.594.769,6.146,6.146,0,0,1-2.558-5.044,6.267,6.267,0,0,1,.782-3.056,16.046,16.046,0,0,0,11.833,6.337,7.2,7.2,0,0,1-.142-1.387,5.9,5.9,0,0,1,5.739-6.056,5.589,5.589,0,0,1,4.193,1.912,10.945,10.945,0,0,0,3.642-1.462A5.992,5.992,0,0,1,24.7,51.87a11.033,11.033,0,0,0,3.3-.937A12.731,12.731,0,0,1,25.122,54.063Z" transform="translate(0 -48.082)"/></svg>