<svg xmlns="http://www.w3.org/2000/svg" width="48" height="27" viewBox="0 0 48 27"><defs><style>.a{fill:#dd100d;fill-rule:evenodd;}</style></defs><path class="a" d="M16.685,44.966h1.058l8.369,25.08H16.685A12.745,12.745,0,0,1,3.8,57.531v-.051A12.74,12.74,0,0,1,16.685,44.966Zm5.7,0H25.08V43.93H16.265A13.491,13.491,0,0,0,2.834,57.4v.068A13.485,13.485,0,0,0,16.265,70.93H37.411A13.478,13.478,0,0,0,50.834,57.464V57.4A13.484,13.484,0,0,0,37.411,43.93H33.474v1.036H36L28.522,63.8,22.385,44.966Zm14.355,0h.243A12.741,12.741,0,0,1,49.877,57.48v.051A12.747,12.747,0,0,1,36.983,70.046H26.943l9.8-25.08Z" transform="translate(-2.834 -43.93)"/></svg>