<svg xmlns="http://www.w3.org/2000/svg" width="64" height="36" viewBox="0 0 64 36"><defs><style>.a{fill-rule:evenodd;}</style></defs><path class="a" d="M21.3,45.311h1.41l11.159,33.44H21.3c-9.446,0-17.181-7.512-17.181-16.686V62c0-9.185,7.735-16.687,17.181-16.687Zm7.6,0h3.593V43.93H20.743A17.988,17.988,0,0,0,2.834,61.885v.09A17.98,17.98,0,0,0,20.743,79.93H48.937a17.971,17.971,0,0,0,17.9-17.955v-.09a17.978,17.978,0,0,0-17.9-17.955h-5.25v1.381h3.37L37.084,70.419,28.9,45.311Zm19.139,0h.325c9.457,0,17.192,7.5,17.192,16.686v.068c0,9.174-7.734,16.686-17.192,16.686H34.98l13.062-33.44Z" transform="translate(-2.834 -43.93)"/></svg>