<svg xmlns="http://www.w3.org/2000/svg" width="179.633" height="29.518" viewBox="0 0 179.633 29.518"><path d="M2.838.92H0V.5H8.919V.877h-2.6l7.4,22.285L19.915.878h-2.11V.5H22.94V.878H20.271L12.3,29.517,2.838.92ZM17.229,28.1h2.5L27.736.25h.473L36.52,28.1h2.77v.335H30.608V28.1h2.568l-2.534-8.53H22.533L20.1,28.1h2.5v.335H17.228V28.1ZM30.54,19.147,26.519,5.56,22.633,19.147Zm10.2,8.948h2.974V.879H40.675V.5h9.6V.879H47.129l-.034,27.175h5.068a7.159,7.159,0,0,0,6.419-4.766,12.331,12.331,0,0,0,.811-3.889h.27V28.43H40.743V28.1Zm20.745,0h2.838V.881H61.656V.5H79.629V7.484h-.2V7.316a7.8,7.8,0,0,0-2.635-5.644,4.155,4.155,0,0,0-2.906-.8L67.67.884v13H69.7c2.5.042,4.324-2.3,4.561-5.812h.27V20.36h-.236v-.209c-.034-3.637-1.926-5.937-4.933-5.937H67.67V28.053h5.406c3.987.042,7.2-3.387,7.67-8.236h.169V28.43H61.488v-.335Zm21.317,0H85.17L85.178.879H82.813V.5h6.351L99.9,21.072V.879H97.636V.5h5.135V.879h-2.534V29.1L85.515.879l-.007,27.212h2.331v.339H82.8v-.335Zm27.535,0h2.5V.882h-1.419c-3.075,0-5.541,3.006-6.218,7.565h-.237V.5h19.056V8.487h-.2c-.371-4.139-2.906-7.61-5.608-7.61H116.15V28.1h2.6v.335h-8.413V28.1Zm16.286,0h2.736V.879h-2.7V.5h8.514V.88H132.5V28.091h2.668v.339h-8.548v-.335Zm11.082,0h2.365V.879h-2.365V.5h6.352L154.8,21.072V.879h-2.26V.5h5.135V.879H155.14V29.1L140.41.879V28.091h2.331v.339h-5.035v-.335ZM158.89,14.968C158.89,6.982,163.789,0,169.363,0c5.506,0,10.27,6.982,10.27,15.009,0,7.526-4.865,13.923-10.574,13.923C163.585,28.932,158.89,22.494,158.89,14.968Zm16.724,6.1a41.459,41.459,0,0,0,.575-6.817c0-5.353-1.047-9.909-2.8-12A5.321,5.321,0,0,0,169.228.375c-3.04,0-5.068,2.132-6.047,6.355a33.944,33.944,0,0,0-.879,7.818c0,5.811,1.014,10.41,2.736,12.418a5.05,5.05,0,0,0,3.918,1.588c3.717,0,5.709-2.217,6.656-7.484Z"/></svg>